<svg width="50" height="55" viewBox="0 0 50 55" fill="none" xmlns="http://www.w3.org/2000/svg">
<path d="M14.8188 40.9382C14.8188 43.5288 12.7186 45.629 10.1279 45.629C7.53726 45.629 5.4371 43.5288 5.4371 40.9382C5.4371 38.3475 7.53726 36.2473 10.1279 36.2473C12.7186 36.2473 14.8188 38.3475 14.8188 40.9382Z" fill="#3D887A"/>
<path d="M39.7655 45.629C42.3561 45.629 44.4563 43.5288 44.4563 40.9382C44.4563 38.3475 42.3561 36.2473 39.7655 36.2473C37.1748 36.2473 35.0746 38.3475 35.0746 40.9382C35.0746 43.5288 37.1748 45.629 39.7655 45.629Z" fill="#3D887A"/>
<path fill-rule="evenodd" clip-rule="evenodd" d="M2.1322 0C0.954617 0 0 0.954617 0 2.1322V47.7612C0 48.9388 0.954616 49.8934 2.13219 49.8934H4.51456C4.49028 50.0319 4.47761 50.1744 4.47761 50.3198V52.3454C4.47761 53.6996 5.57542 54.7974 6.92964 54.7974H13.3262C14.6804 54.7974 15.7783 53.6996 15.7783 52.3454V50.3198C15.7783 50.1744 15.7656 50.0319 15.7413 49.8934H34.2587C34.2344 50.0319 34.2217 50.1744 34.2217 50.3198V52.3454C34.2217 53.6996 35.3196 54.7974 36.6738 54.7974H43.0704C44.4246 54.7974 45.5224 53.6996 45.5224 52.3454V50.3198C45.5224 50.1744 45.5097 50.0319 45.4854 49.8934H47.8678C49.0454 49.8934 50 48.9388 50 47.7612V2.1322C50 0.954617 49.0454 0 47.8678 0H2.1322ZM2.98507 2.98507V6.07076L47.0149 5.94708V2.98507H2.98507ZM2.98507 30.9381V9.05584L47.0149 8.93217V30.8144L2.98507 30.9381ZM2.98507 33.9232V46.9083H47.0149V33.7995L2.98507 33.9232ZM6.92964 50.3198V52.3454H13.3262V50.3198H6.92964ZM36.6738 50.3198H43.0704V52.3454H36.6738V50.3198Z" fill="#3D887A"/>
</svg>
